<?xml version="1.0" encoding="utf-8"?>
<!-- Generator: Adobe Illustrator 26.1.0, SVG Export Plug-In . SVG Version: 6.00 Build 0)  -->
<svg version="1.1" id="Capa_1" xmlns="http://www.w3.org/2000/svg" xmlns:xlink="http://www.w3.org/1999/xlink" x="0px" y="0px"
	 viewBox="0 0 700 700" style="enable-background:new 0 0 700 700;" xml:space="preserve">
<style type="text/css">
	.st0{fill:#FFFFFF;}
</style>
<path class="st0" d="M126,72.8c-6.2,0-11.2,5-11.2,11.2c0,6.2,5,11.2,11.2,11.2h58.1l59,278.6c1.4,6.9,6,12.7,11.7,12.6h280
	c5.9,0.1,11.4-5.3,11.4-11.2s-5.5-11.3-11.4-11.2H263.9L204.2,81.6c-1.1-4.9-6-8.8-11-8.8L126,72.8z M238,140l33.6,168H546l39.2-168
	H238z M316.4,408.8c-21.6,0-39.2,17.6-39.2,39.2s17.6,39.2,39.2,39.2s39.2-17.6,39.2-39.2S338,408.8,316.4,408.8z M473.2,408.8
	c-21.6,0-39.2,17.6-39.2,39.2s17.6,39.2,39.2,39.2s39.2-17.6,39.2-39.2S494.8,408.8,473.2,408.8L473.2,408.8z"/>
</svg>
